<?xml version="1.0" encoding="UTF-8" standalone="no"?>
<svg width="175px" height="40px" viewBox="0 0 175 40" version="1.1" xmlns="http://www.w3.org/2000/svg" xmlns:xlink="http://www.w3.org/1999/xlink" xmlns:sketch="http://www.bohemiancoding.com/sketch/ns">
    <!-- Generator: Sketch 3.5.1 (25234) - http://www.bohemiancoding.com/sketch -->
    <title>Fusfoo</title>
    <desc>Created with Sketch.</desc>
    <defs></defs>
    <g id="Page-1" stroke="none" stroke-width="1" fill="none" fill-rule="evenodd" sketch:type="MSPage">
        <g id="Logo" sketch:type="MSArtboardGroup" fill="#FFFFFF">
            <g id="Fusfoo" sketch:type="MSLayerGroup">
                <path d="M50,28.801105 L50,11.1491713 L61.9834254,11.1491713 L61.9834254,14.7292818 L54.0773481,14.7292818 L54.0773481,18.5331492 L60.5911602,18.5331492 L60.5911602,21.839779 L54.0773481,21.839779 L54.0773481,28.801105 L50,28.801105 Z M77.3977901,25.320442 C78.0939261,25.320442 78.682318,25.1754158 79.1629834,24.8853591 C79.6436488,24.5953024 80.0331477,24.2099472 80.3314917,23.7292818 C80.6298357,23.2486164 80.8411596,22.6975169 80.9654696,22.0759669 C81.0897796,21.4544168 81.1519337,20.8204452 81.1519337,20.1740331 L81.1519337,11.1491713 L85.2292818,11.1491713 L85.2292818,20.1740331 C85.2292818,21.4005586 85.0759684,22.5441936 84.769337,23.6049724 C84.4627056,24.6657512 83.9903347,25.5939187 83.3522099,26.3895028 C82.7140852,27.1850869 81.9019386,27.8107712 80.9157459,28.2665746 C79.9295531,28.722378 78.7569129,28.9502762 77.3977901,28.9502762 C75.9889432,28.9502762 74.7872978,28.7099472 73.7928177,28.2292818 C72.7983376,27.7486164 71.9903346,27.1063576 71.3687845,26.3024862 C70.7472345,25.4986148 70.2914379,24.5663036 70.0013812,23.5055249 C69.7113245,22.4447461 69.5662983,21.3342599 69.5662983,20.1740331 L69.5662983,11.1491713 L73.6436464,11.1491713 L73.6436464,20.1740331 C73.6436464,20.8535946 73.7099441,21.4999969 73.8425414,22.1132597 C73.9751388,22.7265224 74.1906062,23.2734783 74.4889503,23.7541436 C74.7872943,24.234809 75.1726496,24.6160207 75.6450276,24.8977901 C76.1174057,25.1795594 76.701654,25.320442 77.3977901,25.320442 L77.3977901,25.320442 Z M104.770718,16.320442 C104.70442,16.2541433 104.522101,16.1298352 104.223757,15.9475138 C103.925413,15.7651925 103.552488,15.5745866 103.104972,15.3756906 C102.657456,15.1767946 102.168511,15.0027632 101.638122,14.8535912 C101.107732,14.7044191 100.577351,14.6298343 100.046961,14.6298343 C99.3508252,14.6298343 98.8163002,14.7541424 98.4433702,15.0027624 C98.0704401,15.2513825 97.8839779,15.6160197 97.8839779,16.0966851 C97.8839779,16.3950291 97.96685,16.6436454 98.1325967,16.8425414 C98.2983434,17.0414375 98.5345289,17.2196125 98.8411602,17.3770718 C99.1477916,17.5345312 99.5290032,17.6795573 99.9848066,17.8121547 C100.44061,17.944752 100.966848,18.0939218 101.563536,18.2596685 C102.408844,18.4917139 103.171267,18.7444738 103.850829,19.0179558 C104.53039,19.2914378 105.110495,19.6312134 105.59116,20.0372928 C106.071826,20.4433722 106.440606,20.9364612 106.697514,21.5165746 C106.954421,22.096688 107.082873,22.7928136 107.082873,23.6049724 C107.082873,24.5994525 106.896411,25.4406043 106.523481,26.128453 C106.150551,26.8163018 105.657462,27.3715448 105.044199,27.7941989 C104.430936,28.2168529 103.72238,28.5234797 102.918508,28.7140884 C102.114637,28.9046971 101.290059,29 100.444751,29 C99.7983393,29 99.1395061,28.9502767 98.468232,28.8508287 C97.796958,28.7513807 97.1381248,28.6063545 96.4917127,28.4157459 C95.8453006,28.2251372 95.2154727,27.9972389 94.6022099,27.7320442 C93.9889472,27.4668495 93.4254169,27.1602227 92.9116022,26.8121547 L94.7016575,23.2569061 C94.7845308,23.3397794 95.0082855,23.4972364 95.3729282,23.7292818 C95.7375709,23.9613271 96.1850802,24.193369 96.7154696,24.4254144 C97.245859,24.6574597 97.8425381,24.86464 98.5055249,25.0469613 C99.1685116,25.2292827 99.8397756,25.320442 100.519337,25.320442 C101.961333,25.320442 102.68232,24.8812199 102.68232,24.0027624 C102.68232,23.6712691 102.574587,23.3977911 102.359116,23.1823204 C102.143645,22.9668498 101.845306,22.7721003 101.464088,22.5980663 C101.082871,22.4240323 100.635362,22.2624317 100.121547,22.1132597 C99.6077322,21.9640877 99.044202,21.7983435 98.4309392,21.6160221 C97.6187805,21.3674021 96.9143676,21.0980677 96.3176796,20.808011 C95.7209915,20.5179544 95.2237589,20.1823223 94.8259669,19.801105 C94.4281748,19.4198876 94.1339789,18.9806655 93.9433702,18.4834254 C93.7527615,17.9861854 93.6574586,17.4060807 93.6574586,16.7430939 C93.6574586,15.8149125 93.83149,14.9944787 94.179558,14.281768 C94.527626,13.5690572 94.999997,12.9682345 95.5966851,12.4792818 C96.1933731,11.990329 96.8853552,11.6215482 97.6726519,11.3729282 C98.4599487,11.1243081 99.2928133,11 100.171271,11 C100.801108,11 101.414362,11.0580105 102.01105,11.1740331 C102.607738,11.2900558 103.175412,11.4392256 103.714088,11.621547 C104.252765,11.8038683 104.762429,12.0110486 105.243094,12.2430939 C105.723759,12.4751393 106.154694,12.7071812 106.535912,12.9392265 L104.770718,16.320442 Z M115.262431,28.801105 L115.262431,11.1491713 L127.245856,11.1491713 L127.245856,14.7292818 L119.339779,14.7292818 L119.339779,18.5331492 L125.853591,18.5331492 L125.853591,21.839779 L119.339779,21.839779 L119.339779,28.801105 L115.262431,28.801105 Z M142.51105,28.9502762 C141.251375,28.9502762 140.10774,28.6933727 139.08011,28.179558 C138.052481,27.6657433 137.169893,26.9903357 136.43232,26.1533149 C135.694748,25.3162942 135.12293,24.3591214 134.716851,23.281768 C134.310771,22.2044145 134.107735,21.0939284 134.107735,19.9502762 C134.107735,18.7900494 134.319059,17.6712761 134.741713,16.5939227 C135.164367,15.5165692 135.752759,14.5676837 136.506906,13.7472376 C137.261053,12.9267915 138.156072,12.2721019 139.191989,11.7831492 C140.227906,11.2941965 141.35911,11.0497238 142.585635,11.0497238 C143.84531,11.0497238 144.988945,11.3066273 146.016575,11.820442 C147.044204,12.3342567 147.926792,13.0138079 148.664365,13.859116 C149.401937,14.7044241 149.969611,15.6657405 150.367403,16.7430939 C150.765195,17.8204474 150.964088,18.9143591 150.964088,20.0248619 C150.964088,21.1850887 150.752765,22.303862 150.33011,23.3812155 C149.907456,24.4585689 149.323208,25.4074545 148.577348,26.2279006 C147.831488,27.0483466 146.940613,27.7071798 145.904696,28.2044199 C144.868779,28.7016599 143.737575,28.9502762 142.51105,28.9502762 L142.51105,28.9502762 Z M138.259669,20 C138.259669,20.6795614 138.354971,21.3383946 138.54558,21.9765193 C138.736189,22.6146441 139.009667,23.182318 139.366022,23.679558 C139.722377,24.1767981 140.169887,24.5745841 140.708564,24.8729282 C141.24724,25.1712722 141.864637,25.320442 142.560773,25.320442 C143.273484,25.320442 143.895025,25.162985 144.425414,24.8480663 C144.955804,24.5331476 145.399169,24.1229307 145.755525,23.6174033 C146.11188,23.1118759 146.377071,22.5400584 146.551105,21.9019337 C146.725139,21.263809 146.812155,20.613263 146.812155,19.9502762 C146.812155,19.2707148 146.716852,18.6118816 146.526243,17.9737569 C146.335634,17.3356322 146.058013,16.7721019 145.69337,16.2831492 C145.328727,15.7941965 144.881218,15.4046976 144.350829,15.1146409 C143.820439,14.8245842 143.215473,14.679558 142.535912,14.679558 C141.823201,14.679558 141.20166,14.8328714 140.671271,15.1395028 C140.140881,15.4461341 139.697516,15.8480638 139.34116,16.3453039 C138.984805,16.8425439 138.715471,17.4102178 138.533149,18.0483425 C138.350828,18.6864673 138.259669,19.3370133 138.259669,20 L138.259669,20 Z M166.552486,28.9502762 C165.292811,28.9502762 164.149176,28.6933727 163.121547,28.179558 C162.093918,27.6657433 161.21133,26.9903357 160.473757,26.1533149 C159.736184,25.3162942 159.164367,24.3591214 158.758287,23.281768 C158.352208,22.2044145 158.149171,21.0939284 158.149171,19.9502762 C158.149171,18.7900494 158.360495,17.6712761 158.783149,16.5939227 C159.205803,15.5165692 159.794195,14.5676837 160.548343,13.7472376 C161.30249,12.9267915 162.197509,12.2721019 163.233425,11.7831492 C164.269342,11.2941965 165.400546,11.0497238 166.627072,11.0497238 C167.886747,11.0497238 169.030382,11.3066273 170.058011,11.820442 C171.08564,12.3342567 171.968228,13.0138079 172.705801,13.859116 C173.443374,14.7044241 174.011048,15.6657405 174.40884,16.7430939 C174.806632,17.8204474 175.005525,18.9143591 175.005525,20.0248619 C175.005525,21.1850887 174.794201,22.303862 174.371547,23.3812155 C173.948893,24.4585689 173.364645,25.4074545 172.618785,26.2279006 C171.872924,27.0483466 170.982049,27.7071798 169.946133,28.2044199 C168.910216,28.7016599 167.779012,28.9502762 166.552486,28.9502762 L166.552486,28.9502762 Z M162.301105,20 C162.301105,20.6795614 162.396408,21.3383946 162.587017,21.9765193 C162.777625,22.6146441 163.051103,23.182318 163.407459,23.679558 C163.763814,24.1767981 164.211323,24.5745841 164.75,24.8729282 C165.288677,25.1712722 165.906074,25.320442 166.60221,25.320442 C167.314921,25.320442 167.936461,25.162985 168.466851,24.8480663 C168.99724,24.5331476 169.440606,24.1229307 169.796961,23.6174033 C170.153317,23.1118759 170.418507,22.5400584 170.592541,21.9019337 C170.766575,21.263809 170.853591,20.613263 170.853591,19.9502762 C170.853591,19.2707148 170.758288,18.6118816 170.56768,17.9737569 C170.377071,17.3356322 170.099449,16.7721019 169.734807,16.2831492 C169.370164,15.7941965 168.922655,15.4046976 168.392265,15.1146409 C167.861876,14.8245842 167.256909,14.679558 166.577348,14.679558 C165.864637,14.679558 165.243097,14.8328714 164.712707,15.1395028 C164.182318,15.4461341 163.738952,15.8480638 163.382597,16.3453039 C163.026241,16.8425439 162.756907,17.4102178 162.574586,18.0483425 C162.392264,18.6864673 162.301105,19.3370133 162.301105,20 L162.301105,20 Z" id="F-U-S-F-O-O" sketch:type="MSShapeGroup"></path>
                <path d="M8.30507937,23.2224871 L8.30507937,32.1778828 L7.19650794,32.8224871 L7.17936508,32.8224871 C6.7749538,33.0982045 6.30168744,33.2537708 5.81365079,33.271408 L5.81365079,15.9419116 L5.81365079,15.9419116 L5.81365079,6.02536483 C5.70273336,3.92946743 6.74022541,1.94067919 8.516799,0.843648647 C10.2933726,-0.253381899 12.5237383,-0.282489104 14.3279365,0.767810873 L23.6022222,6.16061663 C26.7279365,7.97932166 29.8879365,9.74047274 32.9736508,11.6282425 C35.6099086,13.2306802 36.4951118,16.6590155 34.9679365,19.3519835 C34.4371507,18.6660766 33.7706921,18.0986961 33.0107937,17.6857965 C33.5791581,16.2328244 33.0253083,14.5787666 31.6993651,13.7692497 C28.6565079,11.9160123 25.4650794,10.1347173 22.3707937,8.3332785 L13.0907937,2.94910584 C12.0684416,2.35420109 10.8035179,2.37641477 9.80237818,3.00685463 C8.80123848,3.63729448 8.22748473,4.7729368 8.31079365,5.95917778 L8.31079365,22.0080986 L8.31079365,22.0080986 L8.31079365,23.2339979 L8.30507937,23.2224871 Z M15.6107937,11.1361562 L8.88793651,7.22824253 L8.88793651,5.91889001 C8.84962916,5.42930958 8.94862713,4.93873548 9.17365079,4.50306267 L23.4193651,12.7879548 L23.4193651,12.7879548 L32.6079365,18.1318396 C34.4650897,19.0832885 35.6559523,20.9825123 35.7107962,23.0803746 C35.7656401,25.1782369 34.6756609,27.1379493 32.8707937,28.1865159 L23.6050794,33.576444 C20.4793651,35.395149 17.3765079,37.2685303 14.2336508,39.0210483 C11.5354924,40.5160724 8.14581409,39.5680051 6.59936508,36.8857965 C7.45380066,36.769084 8.2749086,36.4751212 9.01079365,36.0224871 C9.97587672,37.2444944 11.6747303,37.5884108 13.0336508,36.8368756 C16.1507937,35.1102569 19.2765079,33.2167317 22.3707937,31.4152929 L31.6450794,26.0224871 C32.6680792,25.4284337 33.2817946,24.3139951 33.2405021,23.125378 C33.1992097,21.9367609 32.5096587,20.8682516 31.4479365,20.347667 L22.3622222,15.0642138 L15.6193651,11.1447893 L15.6193651,11.1447893 L15.6107937,11.1361562 Z M23.4307937,24.0857965 L30.0593651,20.2152929 L31.1679365,20.8598972 L31.1850794,20.8598972 C31.6242675,21.0748643 31.994561,21.4099277 32.2536508,21.8268037 L16.6736508,30.8857965 L16.6736508,30.8857965 L8.80507937,35.4469476 C7.05853755,36.5912129 4.8301645,36.6805151 2.9988794,35.6796314 C1.16759431,34.6787478 0.0273702151,32.7483485 0.0279365079,30.6498253 L0.0279365079,19.8613361 C0.0279365079,16.2268037 -0.0349206349,12.5893936 0.0279365079,8.95486123 C0.0930787689,5.85408457 2.60291691,3.37217498 5.68222222,3.36349433 C5.35774955,4.16968064 5.20305428,5.03495501 5.22793651,5.90450152 C3.70154459,6.13683371 2.56018275,7.43798551 2.51936508,8.9922713 C2.44793651,12.5750051 2.51936508,16.2498253 2.51936508,19.8469476 L2.51936508,30.6325591 C2.51912994,31.8214835 3.17048989,32.9134421 4.21280858,33.4714966 C5.25512726,34.029551 6.51815745,33.9625515 7.49650794,33.2973073 L16.5822222,28.013854 L23.4222222,24.0368756 L23.4222222,24.0368756 L23.4307937,24.0857965 Z" id="Shape" sketch:type="MSShapeGroup"></path>
                <path d="M13.4285714,27.4139381 C12.1662063,27.4139381 11.1428571,26.3832267 11.1428571,25.1117798 L11.1428571,14.2254489 C11.1987287,13.4328548 11.6564582,12.7253079 12.3537613,12.3536638 C13.0510643,11.9820197 13.8893568,11.9988209 14.5714286,12.3981108 L21.2514286,16.2830028 L23.9228571,17.8369597 C24.5781344,18.2816315 24.9589238,19.0356321 24.9298518,19.8309085 C24.9007798,20.6261848 24.4659698,21.3499399 23.78,21.7448734 L17.0971429,25.6297654 L14.4257143,27.1837223 C14.1163769,27.3335143 13.7775172,27.4112161 13.4342857,27.4110604 L13.4342857,27.4110604 L13.4285714,27.4139381 Z" id="Shape" sketch:type="MSShapeGroup"></path>
            </g>
        </g>
    </g>
</svg>