<?xml version="1.0" encoding="UTF-8" standalone="no"?>
<svg width="25px" height="26px" viewBox="0 0 25 26" version="1.1" xmlns="http://www.w3.org/2000/svg" xmlns:xlink="http://www.w3.org/1999/xlink">
    <!-- Generator: Sketch 39.1 (31720) - http://www.bohemiancoding.com/sketch -->
    <title>Group 2</title>
    <desc>Created with Sketch.</desc>
    <defs></defs>
    <g id="Page-1" stroke="none" stroke-width="1" fill="none" fill-rule="evenodd">
        <g id="Group-2">
            <g id="national" fill="#E12C3C">
                <path d="M2.11208356,18.0206 C5.20284453,24.0980379 11.3160836,25.8934 12.1394169,25.8934 C12.9627502,25.8934 17.8904273,23.2400996 20.7974169,18.0934 C23.7044065,12.9467004 24.2034177,2.52026666 24.2034177,2.52026666 C20.1764488,2.566035 16.4936376,1.74574164 12.1394168,0 C7.79176292,1.74574164 2.76746634,2.52026666 0.0407502239,2.52026667 C0.0407502239,2.52026667 -0.468314855,12.9467004 2.11208356,18.0206 Z" id="Shape"></path>
            </g>
            <polygon id="N" fill="#FFFFFF" points="14.375082 14.7422951 8.71934426 7.44262295 7 7.44262295 7 18 8.82491803 18 8.82491803 10.4891803 14.6465574 18 16.2 18 16.2 7.44262295 14.375082 7.44262295"></polygon>
        </g>
    </g>
</svg>